<?xml version="1.0" encoding="UTF-8" standalone="no"?>
<svg
   xmlns:dc="http://purl.org/dc/elements/1.1/"
   xmlns:cc="http://creativecommons.org/ns#"
   xmlns:rdf="http://www.w3.org/1999/02/22-rdf-syntax-ns#"
   xmlns:svg="http://www.w3.org/2000/svg"
   xmlns="http://www.w3.org/2000/svg"
   xmlns:sodipodi="http://sodipodi.sourceforge.net/DTD/sodipodi-0.dtd"
   xmlns:inkscape="http://www.inkscape.org/namespaces/inkscape"
   version="1.0"
   width="2792.1631"
   height="863.13562"
   id="svg2413"
   xml:space="preserve"
   sodipodi:docname="jeddit-logo.svg"
   inkscape:version="0.92.2 2405546, 2018-03-11"><metadata
   id="metadata9"><rdf:RDF><cc:Work
       rdf:about=""><dc:format>image/svg+xml</dc:format><dc:type
         rdf:resource="http://purl.org/dc/dcmitype/StillImage" /><dc:title /></cc:Work></rdf:RDF></metadata><sodipodi:namedview
   pagecolor="#ffffff"
   bordercolor="#666666"
   borderopacity="1"
   objecttolerance="10"
   gridtolerance="10"
   guidetolerance="10"
   inkscape:pageopacity="0"
   inkscape:pageshadow="2"
   inkscape:window-width="1920"
   inkscape:window-height="1014"
   id="namedview7"
   showgrid="false"
   inkscape:zoom="0.3337544"
   inkscape:cx="1084.7097"
   inkscape:cy="495.17628"
   inkscape:window-x="0"
   inkscape:window-y="0"
   inkscape:window-maximized="1"
   inkscape:current-layer="svg2413"
   fit-margin-top="0"
   fit-margin-left="0"
   fit-margin-right="0"
   fit-margin-bottom="0" /><defs
   id="defs9">

</defs>
<circle
   r="431.56781"
   cy="431.56781"
   cx="431.56781"
   id="path819"
   style="opacity:1;fill:#007bff;fill-opacity:1;stroke:none;stroke-width:2.96600008;stroke-miterlimit:4;stroke-dasharray:none;stroke-opacity:1" /><g
   id="g2"
   style="fill:#ffffff;fill-opacity:1"
   transform="matrix(3.2095469,0,0,3.2095469,-108.10748,1010.6971)">



<path
   inkscape:connector-curvature="0"
   id="path1"
   style="fill:#ffffff;fill-opacity:1;fill-rule:evenodd;stroke:none"
   d="m 171.38577,-146.87499 c 2.03842,-2.9749 12.91487,-18.84945 12.91487,-18.84945 0,0 -8.28916,22.79757 -8.28916,22.79757 0,0 25.69819,3.73169 25.69819,3.73169 0,0 -25.69819,3.73028 -25.69819,3.73028 0,0 9.94777,19.48177 9.94777,19.48177 0,0 -12.41092,-13.0482 -14.16467,-14.89141 0.72286,28.24941 0.90074,35.20213 0.90074,35.20213 0,0 63.4176,-29.4306 28.1854,-94.5075 0,0 43.93724,-48.49718 4.14546,-78.34119 0,0 67.97754,41.03556 24.86995,111.50064 0,0 35.64632,-34.817 16.99421,-70.05061 0,0 32.33051,45.59585 -7.04679,95.75093 0,0 10.77707,-6.63302 20.31036,-31.91745 0,0 -6.95413,75.271875 -91.168,76.259267 0,0.0099 0,0.0099 0,0.0099 -0.2808,0 -0.55983,0 -0.83956,-0.0014 -0.27868,0.0014 -0.55876,0.0014 -0.83885,0.0014 0,0 0,0 0,-0.0099 -84.213519,-0.987392 -91.167653,-76.259267 -91.167653,-76.259267 9.532939,25.28443 20.309299,31.91745 20.309299,31.91745 -39.376596,-50.15508 -7.046081,-95.75093 -7.046081,-95.75093 -18.652818,35.23361 16.994915,70.05061 16.994915,70.05061 -43.108292,-70.46508 24.86853,-111.50064 24.86853,-111.50064 -39.791073,29.84401 4.14617,78.34119 4.14617,78.34119 -35.23183,65.0769 28.18575,94.5075 28.18575,94.5075 0,0 0.17682,-6.95272 0.89968,-35.20213 -1.75409,1.84321 -14.16431,14.89141 -14.16431,14.89141 0,0 9.94741,-19.48177 9.94741,-19.48177 0,0 -25.69748,-3.73028 -25.69748,-3.73028 0,0 25.69748,-3.73169 25.69748,-3.73169 0,0 -8.28809,-22.79757 -8.28809,-22.79757 0,0 10.87538,15.87455 12.91381,18.84945 0.92373,-36.08343 3.21395,-125.61475 3.22527,-126.03736 0.004,-0.99269 0.004,-0.99835 0.004,-0.99835 0,0 0,0.001 0.01,0.41271 0.011,-0.41165 0.011,-0.41271 0.011,-0.41271 0,0 0,0.006 0.004,0.99835 0.0184,0.70623 2.30295,90.03598 3.22421,126.03736 0,0 0,0 0,0 z" /></g>
<g
   aria-label="Jeddit"
   style="font-style:normal;font-weight:normal;font-size:674.65454102px;line-height:1.25;font-family:sans-serif;letter-spacing:0px;word-spacing:0px;fill:#000000;fill-opacity:1;stroke:none;stroke-width:16.86636353"
   id="text4523"><path
     sodipodi:type="inkscape:offset"
     inkscape:radius="0"
     inkscape:original="M 1159.2852 267.01172 L 1159.2852 567.79297 C 1157.4623 581.46484 1154.8045 590.80729 1151.3105 595.82031 C 1147.8166 600.83333 1143.2593 604.70703 1137.6387 607.44141 C 1132.018 610.17579 1125.1821 612.14996 1117.1309 613.36523 C 1109.0797 614.58051 1098.37 615.03624 1085.002 614.73242 L 1085.002 712.71484 C 1108.6999 712.71484 1127.6873 711.95465 1141.9668 710.43555 C 1156.2463 708.91645 1172.1968 705.80295 1189.8184 701.09375 C 1207.4399 696.38454 1222.0998 689.472 1233.7969 680.35742 C 1245.4939 671.24284 1253.6204 661.52127 1258.1777 651.19141 C 1262.735 640.86155 1265.4694 623.08811 1266.3809 597.87109 L 1266.3809 364.99414 L 1298.2832 364.99414 L 1298.2832 596.04883 L 1608.1777 596.04883 L 1796.8496 596.04883 C 1826.9277 596.65647 1851.9182 593.61762 1871.8184 586.93359 C 1891.8704 580.24957 1908.8071 570.83051 1922.6309 558.67773 C 1936.4546 546.52496 1947.5453 529.96745 1955.9004 509.00391 C 1964.2554 488.04036 1969.2684 462.59614 1970.9395 432.66992 C 1970.9395 400.31316 1966.3056 374.03212 1957.0391 353.82812 C 1947.9245 333.62413 1936.4546 317.59701 1922.6309 305.74805 C 1908.8071 293.89909 1891.8704 284.48199 1871.8184 277.49414 C 1851.7662 270.50629 1828.5987 267.01172 1802.3184 267.01172 L 1608.1777 267.01172 L 1608.1777 498.06641 L 1405.3789 498.06641 L 1405.3789 460.24023 L 1518.4004 460.24023 L 1518.4004 402.81836 L 1405.3789 402.81836 L 1405.3789 364.99414 L 1580.3789 364.99414 L 1580.3789 267.01172 L 1323.3477 267.01172 L 1298.2832 267.01172 L 1159.2852 267.01172 z M 1987.3457 267.01172 L 1987.3457 596.04883 L 2176.0176 596.04883 C 2206.0957 596.65647 2231.0842 593.61762 2250.9844 586.93359 C 2271.0364 580.24957 2287.975 570.83051 2301.7988 558.67773 C 2315.6226 546.52496 2326.7113 529.96745 2335.0664 509.00391 C 2343.4214 488.04036 2348.4345 462.59614 2350.1055 432.66992 C 2350.1055 400.31316 2345.4715 374.03212 2336.2051 353.82812 C 2327.0905 333.62413 2315.6226 317.59701 2301.7988 305.74805 C 2287.975 293.89909 2271.0364 284.48199 2250.9844 277.49414 C 2230.9322 270.50629 2207.7667 267.01172 2181.4863 267.01172 L 1987.3457 267.01172 z M 2361.9551 267.01172 L 2361.9551 596.04883 L 2469.0508 596.04883 L 2469.0508 267.01172 L 2361.9551 267.01172 z M 2476.3418 267.01172 L 2476.3418 364.99414 L 2580.7051 364.99414 L 2580.7051 596.04883 L 2687.8008 596.04883 L 2687.8008 364.99414 L 2792.1621 364.99414 L 2792.1621 267.01172 L 2476.3418 267.01172 z M 1718.0098 348.58789 L 1780.2168 348.58789 C 1794.6482 348.58789 1806.3439 351.62478 1815.3066 357.70117 C 1824.2693 363.62565 1831.561 371.90538 1837.1816 382.53906 C 1842.9542 393.02084 1846.0697 409.35048 1846.5254 431.5293 C 1845.0063 455.83485 1841.5118 472.69683 1836.043 482.11523 C 1830.5742 491.38172 1823.5104 499.05447 1814.8516 505.13086 C 1806.1927 511.05534 1794.7995 514.01758 1780.6719 514.01758 L 1718.0098 514.01758 L 1718.0098 348.58789 z M 2097.1758 348.58789 L 2159.3828 348.58789 C 2173.8142 348.58789 2185.5119 351.62478 2194.4746 357.70117 C 2203.4373 363.62565 2210.7289 371.90538 2216.3496 382.53906 C 2222.1222 393.02084 2225.2357 409.35048 2225.6914 431.5293 C 2224.1723 455.83485 2220.6777 472.69683 2215.209 482.11523 C 2209.7403 491.38172 2202.6764 499.05447 2194.0176 505.13086 C 2185.3587 511.05534 2173.9655 514.01758 2159.8379 514.01758 L 2097.1758 514.01758 L 2097.1758 348.58789 z "
     style="font-style:normal;font-variant:normal;font-weight:normal;font-stretch:normal;font-size:466.66665649px;font-family:'Star Jedi';-inkscape-font-specification:'Star Jedi, Normal';font-variant-ligatures:normal;font-variant-caps:normal;font-variant-numeric:normal;font-feature-settings:normal;text-align:start;writing-mode:lr-tb;text-anchor:start;stroke-width:16.86636353"
     id="path894"
     d="m 1159.2852,267.01172 v 300.78125 c -1.8229,13.67187 -4.4807,23.01432 -7.9747,28.02734 -3.4939,5.01302 -8.0512,8.88672 -13.6718,11.6211 -5.6207,2.73438 -12.4566,4.70855 -20.5078,5.92382 -8.0512,1.21528 -18.7609,1.67101 -32.1289,1.36719 v 97.98242 c 23.6979,0 42.6853,-0.76019 56.9648,-2.27929 14.2795,-1.5191 30.23,-4.6326 47.8516,-9.3418 17.6215,-4.70921 32.2814,-11.62175 43.9785,-20.73633 11.697,-9.11458 19.8235,-18.83615 24.3808,-29.16601 4.5573,-10.32986 7.2917,-28.1033 8.2032,-53.32032 V 364.99414 h 31.9023 v 231.05469 h 309.8945 188.6719 c 30.0781,0.60764 55.0686,-2.43121 74.9688,-9.11524 20.052,-6.68402 36.9887,-16.10308 50.8125,-28.25586 13.8237,-12.15277 24.9144,-28.71028 33.2695,-49.67382 8.355,-20.96355 13.368,-46.40777 15.0391,-76.33399 0,-32.35676 -4.6339,-58.6378 -13.9004,-78.8418 -9.1146,-20.20399 -20.5845,-36.23111 -34.4082,-48.08007 -13.8238,-11.84896 -30.7605,-21.26606 -50.8125,-28.25391 -20.0522,-6.98785 -43.2197,-10.48242 -69.5,-10.48242 h -194.1407 v 231.05469 h -202.7988 v -37.82618 h 113.0215 v -57.42187 h -113.0215 v -37.82422 h 175 v -97.98242 h -257.0312 -25.0645 z m 828.0605,0 v 329.03711 h 188.6719 c 30.0781,0.60764 55.0666,-2.43121 74.9668,-9.11524 20.052,-6.68402 36.9906,-16.10308 50.8144,-28.25586 13.8238,-12.15277 24.9125,-28.71028 33.2676,-49.67382 8.355,-20.96355 13.3681,-46.40777 15.0391,-76.33399 0,-32.35676 -4.634,-58.6378 -13.9004,-78.8418 -9.1146,-20.20399 -20.5825,-36.23111 -34.4063,-48.08007 -13.8238,-11.84896 -30.7624,-21.26606 -50.8144,-28.25391 -20.0522,-6.98785 -43.2177,-10.48242 -69.4981,-10.48242 z m 374.6094,0 v 329.03711 h 107.0957 V 267.01172 Z m 114.3867,0 v 97.98242 h 104.3633 v 231.05469 h 107.0957 V 364.99414 h 104.3613 v -97.98242 z m -758.332,81.57617 h 62.207 c 14.4314,0 26.1271,3.03689 35.0898,9.11328 8.9627,5.92448 16.2544,14.20421 21.875,24.83789 5.7726,10.48178 8.8881,26.81142 9.3438,48.99024 -1.5191,24.30555 -5.0136,41.16753 -10.4824,50.58593 -5.4688,9.26649 -12.5326,16.93924 -21.1914,23.01563 -8.6589,5.92448 -20.0521,8.88672 -34.1797,8.88672 h -62.6621 z m 379.166,0 h 62.207 c 14.4314,0 26.1291,3.03689 35.0918,9.11328 8.9627,5.92448 16.2543,14.20421 21.875,24.83789 5.7726,10.48178 8.8861,26.81142 9.3418,48.99024 -1.5191,24.30555 -5.0137,41.16753 -10.4824,50.58593 -5.4687,9.26649 -12.5326,16.93924 -21.1914,23.01563 -8.6589,5.92448 -20.0521,8.88672 -34.1797,8.88672 h -62.6621 z" /></g>

</svg>